#!OML:ASF F:\VICON\USERDATA\INSTALL\rory3\rory3.ASF
:FULLY-SPECIFIED
:DEGREES
358
root 0.514554 16.3455 -13.6793 27.6831 -4.00997 -1.74033
lowerback -17.6269 0.776129 -3.41282
upperback -10.5498 1.49534 0.450122
thorax -1.5339 0.929147 2.63426
lowerneck -15.1865 -0.820975 -1.59197
upperneck 34.8415 -1.11617 1.08501
head 14.5623 -0.541205 0.540132
rclavicle -2.60594e-014 -1.19271e-014
rhumerus -56.6102 26.8576 -102.704
rradius 29.6745
rwrist -14.0532
rhand 30.2328 2.52663
rfingers 7.12502
rthumb 53.9162 -16.3679
lclavicle -2.60594e-014 -1.19271e-014
lhumerus -48.926 -12.4692 88.351
lradius 38.184
lwrist -2.38967
lhand 23.5263 16.3567
lfingers 7.12502
lthumb 47.8048 38.6601
rfemur -20.8819 -3.92393 31.474
rtibia 44.7968
rfoot 24.2947 -26.2019
rtoes 21.1629
lfemur -49.1657 6.55874 -35.4575
ltibia 40.0977
lfoot -44.3178 26.2916
ltoes 18.0734
359
root 0.516942 16.3449 -13.6833 27.6425 -4.10241 -1.71211
lowerback -17.5777 0.843242 -3.46581
upperback -10.6825 1.58781 0.39476
thorax -1.71027 0.982024 2.61634
lowerneck -14.695 -0.886158 -1.42328
upperneck 34.9415 -1.25727 1.03391
head 14.4967 -0.588014 0.467826
rclavicle 1.32316e-014 6.16232e-015
rhumerus -56.7107 25.9483 -102.314
rradius 29.3494
rwrist -13.2412
rhand 30.1341 2.67587
rfingers 7.12502
rthumb 53.8275 -16.2781
lclavicle 1.32316e-014 6.16232e-015
lhumerus -49.0956 -11.8345 88.1016
lradius 37.9569
lwrist -3.20852
lhand 22.8549 16.03
lfingers 7.12502
lthumb 47.1848 38.6144
rfemur -20.8877 -3.94825 31.3908
rtibia 44.8677
rfoot 24.2297 -26.014
rtoes 20.3217
lfemur -49.0994 6.62537 -35.5439
ltibia 40.0188
lfoot -44.2711 26.3428
ltoes 17.9416
360
root 0.51985 16.347 -13.6858 27.5883 -3.97106 -1.86682
lowerback -17.5821 0.934245 -3.23946
upperback -10.8357 1.67415 0.386196
thorax -1.87112 1.01989 2.49019
lowerneck -13.9164 -0.924249 -1.32688
upperneck 34.9015 -1.39278 1.1447
head 14.3029 -0.62056 0.47676
rclavicle 8.24335e-015 1.35174e-014
rhumerus -56.8679 24.9433 -101.858
rradius 29.0062
rwrist -12.5571
rhand 29.8377 2.86176
rfingers 7.12502
rthumb 53.561 -16.2688
lclavicle 8.24335e-015 1.35174e-014
lhumerus -49.2772 -11.2094 87.8742
lradius 38.0923
lwrist -3.5182
lhand 22.9013 17.1181
lfingers 7.12502
lthumb 47.2277 39.6834
rfemur -20.8543 -4.06512 31.5764
rtibia 44.9217
rfoot 24.1343 -25.7593
rtoes 19.4085
lfemur -49.0213 6.5216 -35.2911
ltibia 39.9661
lfoot -44.2109 26.5335
ltoes 17.7534
361
root 0.523593 16.3493 -13.6912 27.5406 -4.02832 -1.69865
lowerback -17.6541 1.00049 -3.34234
upperback -10.8804 1.77872 0.254707
thorax -1.8893 1.07467 2.42615
lowerneck -13.6684 -1.14941 -1.52374
upperneck 35.188 -1.81815 1.52601
head 14.393 -0.77851 0.601205
rclavicle 8.48562e-015 -1.11319e-014
rhumerus -56.6314 24.0282 -101.3
rradius 28.5146
rwrist -12.1377
rhand 29.142 3.48955
rfingers 7.12502
rthumb 52.9339 -16.0446
lclavicle 8.48562e-015 -1.11319e-014
lhumerus -49.1497 -10.3574 87.2914
lradius 37.8025
lwrist -4.80684
lhand 22.9131 16.6136
lfingers 7.12502
lthumb 47.2386 39.174
rfemur -20.887 -4.16841 31.3562
rtibia 44.9927
rfoot 24.3268 -25.5162
rtoes 19.3129
lfemur -48.9684 6.52756 -35.5061
ltibia 39.9344
lfoot -44.1311 26.5984
ltoes 17.5018
362
root 0.525539 16.3503 -13.6926 27.605 -4.18704 -1.66027
lowerback -17.9934 1.01057 -3.49901
upperback -10.7592 1.8274 0.306367
thorax -1.59601 1.10141 2.58853
lowerneck -13.2542 -0.945079 -1.00466
upperneck 34.7387 -1.47771 1.01944
head 14.0757 -0.633791 0.357908
rclavicle -6.53505e-015 -2.38542e-015
rhumerus -56.1593 23.5641 -100.66
rradius 28.1328
rwrist -12.2056
rhand 27.7849 4.64092
rfingers 7.12502
rthumb 51.7048 -15.6384
lclavicle -6.53505e-015 -2.38542e-015
lhumerus -48.627 -9.13791 86.6851
lradius 37.3842
lwrist -6.1597
lhand 22.8226 16.362
lfingers 7.12502
lthumb 47.1549 38.9596
rfemur -20.9826 -4.0572 31.23
rtibia 45.0119
rfoot 24.3569 -25.7575
rtoes 20.4311
lfemur -49.0358 6.49908 -35.5783
ltibia 39.9394
lfoot -44.408 26.4499
ltoes 17.9862
363
root 0.528307 16.3516 -13.6936 27.7575 -4.25912 -1.8306
lowerback -18.4453 1.01648 -3.45266
upperback -10.6071 1.84406 0.471224
thorax -1.20566 1.10305 2.7558
lowerneck -13.4001 -0.959825 -1.11532
upperneck 34.7721 -1.45626 0.988512
head 14.1243 -0.642651 0.367725
rclavicle 8.01972e-015 -1.05356e-014
rhumerus -56.0002 23.6776 -100.57
rradius 27.5512
rwrist -11.9714
rhand 30.4647 1.88076
rfingers 7.12502
rthumb 54.1243 -16.8729
lclavicle 8.01972e-015 -1.05356e-014
lhumerus -48.1289 -7.72842 86.0832
lradius 37.1286
lwrist -7.3964
lhand 22.6686 16.4845
lfingers 7.12502
lthumb 47.0124 39.1453
rfemur -21.1297 -3.90841 31.3615
rtibia 44.9767
rfoot 24.5161 -25.7846
rtoes 20.6618
lfemur -49.2374 6.43195 -35.4019
ltibia 39.9727
lfoot -44.5464 26.5773
ltoes 18.1472
364
root 0.533292 16.3538 -13.694 27.6669 -4.10132 -1.89813
lowerback -18.5606 0.962038 -3.3719
upperback -10.4533 1.7653 0.580011
thorax -0.974721 1.0563 2.81873
lowerneck -13.7453 -1.06687 -1.38962
upperneck 35.0471 -1.63043 1.2459
head 14.3369 -0.717435 0.49233
rclavicle -3.28243e-014 -3.47873e-015
rhumerus -55.7681 23.4614 -100.222
rradius 27.1559
rwrist -11.7668
rhand 29.3187 3.0994
rfingers 7.12502
rthumb 53.0934 -16.3336
lclavicle -3.28243e-014 -3.47873e-015
lhumerus -47.9053 -6.23453 85.358
lradius 37.1385
lwrist -8.57348
lhand 22.33 16.7468
lfingers 7.12502
lthumb 46.6992 39.5445
rfemur -20.9845 -4.07141 31.4569
rtibia 44.8906
rfoot 24.7816 -25.4485
rtoes 20.1821
lfemur -49.1868 6.36161 -35.2702
ltibia 40.0203
lfoot -44.2751 27.0769
ltoes 17.2622
